# xmcd CD database file
#
# Track frame offsets:
#	150
#	17069
#	38763
#	51125
#	62767
#	75817
#	90279
#	107349
#	123681
#	136870
#	152209
#	164494
#	180167
#
# Disc length: 2579 seconds
#
# Revision: 0
# Processed by: cddbd v1.5.1PL2 Copyright (c) Steve Scherf et al.
# Submitted via: CDex 1.51
#
DISCID=910a110d
DTITLE=Eric Le Lann (Trompette) and Jean-Marie Ecay (guitare) - Play Jobim
DYEAR=2005
DGENRE=Jazz
TTITLE0=Olha Maria
TTITLE1=If you never comes to me
TTITLE2=Desafinado
TTITLE3=Luiza
TTITLE4=Ligia
TTITLE5=Aguas de Março
TTITLE6=Portrait in black and white
TTITLE7=Once i loved
TTITLE8=Bras dessus
TTITLE9=Arabie
TTITLE10=Meditation
TTITLE11=Corcovado
TTITLE12=Anna-Luiza
EXTD=YEAR: 2005
EXTT0=
EXTT1=
EXTT2=
EXTT3=
EXTT4=
EXTT5=
EXTT6=
EXTT7=
EXTT8=
EXTT9=
EXTT10=
EXTT11=
EXTT12=
PLAYORDER=
